<svg version="1.1" id="Layer_1" xmlns="http://www.w3.org/2000/svg" xmlns:xlink="http://www.w3.org/1999/xlink" x="0px" y="0px"
	 width="100%" viewBox="0 0 512 512" enable-background="new 0 0 512 512" xml:space="preserve">
<path fill="#2A428C" opacity="1.000000" stroke="none" 
	d="
M256.000000,1.000000 
	C319.354218,1.000000 382.708466,1.000000 446.441833,1.365560 
	C447.880341,2.458838 448.849243,3.409689 450.012451,3.880881 
	C468.165466,11.234369 478.241425,25.368961 478.691132,44.207733 
	C479.636871,83.827492 478.897736,123.487480 478.625671,163.464478 
	C478.315369,164.455185 478.154510,165.112335 478.154358,165.769516 
	C478.139771,233.185837 478.131378,300.602142 478.174072,368.018433 
	C478.174957,369.421661 478.774750,370.824463 479.091187,372.584717 
	C468.014832,396.306091 453.620514,417.405701 435.729492,435.872314 
	C435.451752,433.497742 435.303375,431.506775 435.300507,429.515564 
	C435.277710,413.702057 435.372040,397.887787 435.243164,382.075287 
	C435.173218,373.492981 430.438843,368.917053 421.866333,368.785736 
	C416.374481,368.701599 410.879333,368.701660 405.387451,368.784271 
	C396.615967,368.916229 391.939392,373.619171 391.922607,382.513245 
	C391.869781,410.478149 391.879608,438.443298 391.955078,466.408081 
	C391.960144,468.287720 392.712982,470.165283 392.952820,472.351288 
	C377.772827,480.485199 363.073059,489.010742 347.661407,495.956665 
	C329.436981,504.170288 310.055328,508.908691 290.113007,511.100555 
	C289.348328,511.184601 288.701660,512.342468 288.000000,513.000000 
	C274.312439,513.000000 260.624878,513.000000 246.405502,512.643311 
	C244.579224,508.421539 242.816086,504.642181 242.089752,500.673096 
	C240.663116,492.877411 244.228409,486.546204 249.526886,480.759216 
	C255.637802,480.712219 261.295563,480.898621 266.933624,480.645752 
	C275.908478,480.243225 280.715546,475.243896 280.846039,466.451691 
	C280.927429,460.970123 281.026855,455.479340 280.808044,450.005066 
	C280.486664,441.963806 275.438568,437.154816 267.411591,437.010834 
	C261.267059,436.900574 255.120316,436.911407 248.800568,436.580902 
	C244.813019,431.926453 243.034851,426.792236 244.177307,421.147186 
	C244.810715,418.017395 246.668427,415.135376 248.443039,412.102173 
	C255.061218,412.073395 261.211823,412.164398 267.359802,412.074921 
	C275.290802,411.959534 280.347443,407.420807 280.753052,399.657623 
	C281.073456,393.525208 281.075287,387.349548 280.757294,381.217041 
	C280.353912,373.437988 275.319946,368.960876 267.398071,368.826172 
	C261.252625,368.721680 255.105972,368.688019 248.876328,368.303894 
	C242.229385,358.485687 242.266876,354.040497 249.461365,343.994568 
	C255.578384,343.934998 261.230316,344.005463 266.878754,343.896027 
	C275.758118,343.724030 280.647308,338.786713 280.816132,329.837402 
	C280.913300,324.687378 280.904480,319.532806 280.818268,314.382416 
	C280.666382,305.305817 275.631195,300.332581 266.464050,300.177612 
	C260.650055,300.079315 254.834183,300.092438 248.853363,299.750671 
	C242.148773,290.030975 242.235199,285.344055 249.583008,275.683899 
	C256.180420,275.594727 262.344604,275.865051 268.453186,275.401825 
	C276.084015,274.823120 280.496490,270.017120 280.794434,262.368927 
	C281.020386,256.567719 281.026489,250.743591 280.799744,244.942566 
	C280.485931,236.913300 275.430847,232.136810 267.391235,231.993576 
	C261.252045,231.884201 255.110794,231.890182 248.795410,231.569427 
	C239.703827,221.479477 238.755508,214.901108 244.439301,203.033539 
	C245.136749,201.577286 245.471115,199.947128 246.433105,198.290573 
	C301.382355,198.164246 355.872192,198.156403 410.362061,198.120590 
	C436.675171,198.103302 453.430237,181.415161 453.534943,155.064651 
	C453.608398,136.568253 453.708038,118.069077 453.447144,99.576065 
	C453.372986,94.318565 452.791931,88.851021 451.210602,83.871262 
	C445.686249,66.474976 430.451050,56.360455 410.419159,56.343739 
	C356.762115,56.298958 303.105042,56.331738 249.447968,56.312298 
	C247.294464,56.311520 245.141037,56.092602 242.820740,55.683746 
	C234.814514,46.530853 234.676804,41.023777 241.990448,31.368774 
	C242.462769,30.745214 242.615967,29.879911 243.329041,29.088768 
	C252.135071,28.352678 255.938889,24.300434 255.994400,15.933840 
	C256.027435,10.956100 256.000153,5.977960 256.000000,1.000000 
M347.468781,334.495941 
	C347.630768,327.521973 347.981659,320.545959 347.905243,313.574615 
	C347.816742,305.496643 342.900940,300.503998 334.831207,300.197479 
	C329.014343,299.976532 323.176025,299.985352 317.358582,300.199249 
	C309.750610,300.478973 304.829773,305.061432 304.349121,312.651276 
	C303.960663,318.784332 303.975494,324.976379 304.317627,331.114014 
	C304.766907,339.174103 309.834442,343.742523 318.017426,343.916779 
	C323.341095,344.030151 328.669464,343.978760 333.995087,343.928436 
	C340.224213,343.869629 344.936554,341.422028 347.468781,334.495941 
M304.884644,471.227997 
	C306.678131,477.278931 311.011963,480.258148 317.039642,480.549500 
	C323.178162,480.846222 329.363708,480.952881 335.488922,480.545685 
	C343.356323,480.022675 347.777618,475.019684 347.934204,467.080597 
	C348.048981,461.260925 348.102081,455.431763 347.905182,449.616272 
	C347.654175,442.201599 342.572327,437.218048 335.146759,437.033081 
	C329.162048,436.883972 323.168488,436.899658 317.182831,437.027802 
	C310.086426,437.179718 304.893799,441.491516 304.462189,448.523804 
	C304.016113,455.792114 304.565613,463.121552 304.884644,471.227997 
M343.442566,234.956589 
	C340.524323,233.965622 337.657715,232.369720 334.676605,232.115280 
	C329.226318,231.650070 323.707764,231.928131 318.218689,231.987122 
	C309.692444,232.078751 304.732208,236.543747 304.298828,244.961197 
	C303.991364,250.933640 303.986938,256.949005 304.313324,262.919708 
	C304.707153,270.124542 309.053741,274.815155 316.217133,275.327148 
	C322.827576,275.799591 329.532166,275.802338 336.137207,275.279114 
	C343.627075,274.685791 347.727203,269.859772 347.922485,262.333649 
	C348.064880,256.847504 348.433655,251.297974 347.789612,245.885208 
	C347.364441,242.311722 345.322266,238.930634 343.442566,234.956589 
M426.337341,343.236603 
	C432.306427,341.292114 435.204742,337.077301 435.277954,330.902954 
	C435.348907,324.916992 435.435455,318.924744 435.246338,312.943756 
	C435.012787,305.557770 430.539642,300.752869 423.136780,300.322693 
	C416.839233,299.956757 410.488678,299.955658 404.189667,300.302948 
	C396.580597,300.722534 392.070526,305.691742 391.927307,313.304016 
	C391.814697,319.288818 391.792572,325.280273 391.939117,331.263672 
	C392.111389,338.296814 396.643829,343.431122 403.635223,343.748169 
	C410.920288,344.078552 418.241119,343.621246 426.337341,343.236603 
M304.199005,389.526306 
	C304.204773,392.690765 304.079468,395.861938 304.241852,399.018341 
	C304.660767,407.160522 309.547363,411.940002 317.617584,412.072693 
	C323.611542,412.171295 329.613312,412.224731 335.603119,412.032806 
	C342.531189,411.810822 347.557251,406.971405 347.862305,400.037354 
	C348.140167,393.720734 348.122375,387.375214 347.881348,381.055878 
	C347.604187,373.788544 342.620331,369.026642 335.360016,368.856720 
	C329.533875,368.720367 323.701508,368.764008 317.873077,368.830597 
	C309.456238,368.926697 304.638489,373.614288 304.227661,382.058411 
	C304.122589,384.218658 304.203796,386.387970 304.199005,389.526306 
M392.068085,242.179825 
	C392.024902,249.175110 391.818268,256.174255 391.984222,263.164581 
	C392.152496,270.250916 396.914551,275.023773 403.982635,275.248322 
	C410.306824,275.449219 416.646454,275.440521 422.971710,275.259735 
	C430.452545,275.045929 434.966339,270.466705 435.183228,262.920044 
	C435.355438,256.927521 435.343048,250.923767 435.204926,244.929779 
	C435.017670,236.801392 430.172821,232.132874 421.891510,231.990555 
	C416.562042,231.898956 411.228546,232.041031 405.898895,231.953918 
	C399.072235,231.842331 394.444031,234.809906 392.068085,242.179825 
M389.271698,22.119633 
	C385.015808,23.298536 382.534943,26.059698 383.229675,30.493546 
	C383.958313,35.143944 387.352722,37.001686 391.900085,36.985527 
	C398.376953,36.962517 404.855560,37.066128 411.330444,36.949131 
	C416.618256,36.853580 420.039185,33.702782 419.955048,29.310648 
	C419.873535,25.055496 416.605408,22.089117 411.556213,22.019600 
	C404.416687,21.921301 397.274475,22.016327 389.271698,22.119633 
z"/>
<path fill="#000000" opacity="1.000000" stroke="none" 
	d="
M226.000000,513.000000 
	C151.036667,513.000000 76.073326,513.000000 1.054992,513.000000 
	C1.054992,342.453430 1.054992,171.906845 1.054992,1.000000 
	C53.353676,1.000000 105.708183,1.000000 158.670776,1.368686 
	C158.165726,2.336135 157.104950,3.075895 155.931351,3.511961 
	C143.521362,8.122986 134.946381,16.595367 129.987473,29.269974 
	C125.205711,39.395660 127.608215,49.834026 126.636368,60.093651 
	C110.459892,70.071800 95.710991,81.307602 82.586319,95.087318 
	C76.340187,101.815224 69.934288,108.050598 64.539589,115.063812 
	C47.265209,137.520828 33.289394,161.873459 24.624342,188.982071 
	C21.688545,198.166718 19.628906,207.631393 16.989346,217.334381 
	C15.206537,228.565048 12.925413,239.383377 12.183017,250.306259 
	C11.376209,262.176880 11.969723,274.144867 12.041580,286.069885 
	C12.049710,287.419128 12.632847,288.764862 12.976412,290.561340 
	C13.014697,293.503723 12.631340,296.074493 13.103002,298.477417 
	C15.628227,311.342621 17.984142,324.262207 21.179554,336.966553 
	C23.003105,344.216675 26.315443,351.092377 28.970695,358.513489 
	C33.277859,367.933197 37.571747,376.976105 41.939091,386.381287 
	C45.417717,392.394287 48.427231,398.335388 52.314556,403.632233 
	C59.318981,413.176514 66.749352,422.415375 74.183517,431.635284 
	C84.728432,444.713104 97.370514,455.535858 111.155884,465.525970 
	C119.833427,471.183289 128.381485,476.539307 137.107361,482.211182 
	C143.757767,485.652313 150.230331,488.777649 156.944901,492.189789 
	C177.115189,501.232300 197.859512,507.178101 219.331543,510.691254 
	C221.619049,511.065521 223.780212,512.211853 226.000000,513.000000 
z"/>
<path fill="#000000" opacity="1.000000" stroke="none" 
	d="
M478.850159,163.130951 
	C478.897736,123.487480 479.636871,83.827492 478.691132,44.207733 
	C478.241425,25.368961 468.165466,11.234369 450.012451,3.880881 
	C448.849243,3.409689 447.880341,2.458838 446.910522,1.365560 
	C468.988007,1.000000 490.976044,1.000000 512.982056,1.000000 
	C512.982056,171.561691 512.982056,342.123383 512.982056,513.000000 
	C438.312744,513.000000 363.625031,513.000000 288.468658,513.000000 
	C288.701660,512.342468 289.348328,511.184601 290.113007,511.100555 
	C310.055328,508.908691 329.436981,504.170288 347.661407,495.956665 
	C363.073059,489.010742 377.772827,480.485199 393.301178,472.304474 
	C395.413330,470.890900 397.150482,469.991699 398.588806,468.747162 
	C411.065063,457.951904 423.487701,447.094604 435.926270,436.255798 
	C453.620514,417.405701 468.014832,396.306091 479.393066,372.369812 
	C480.716400,369.417938 481.741974,367.041534 482.750214,364.657806 
	C495.068909,335.532898 502.252655,305.325409 502.012665,273.541656 
	C501.947266,264.879395 502.720734,256.138275 501.807190,247.572235 
	C500.498413,235.300491 498.583405,223.022644 495.856415,210.990082 
	C492.101074,194.420029 486.660217,178.322479 478.850159,163.130951 
z"/>
<path fill="#1D2F7A" opacity="1.000000" stroke="none" 
	d="
M226.468414,513.000000 
	C223.780212,512.211853 221.619049,511.065521 219.331543,510.691254 
	C197.859512,507.178101 177.115189,501.232300 157.203583,491.923248 
	C169.940994,486.039520 181.565063,479.012268 191.702240,469.084290 
	C222.503815,437.832977 231.809540,401.209320 220.864243,359.179749 
	C220.246933,356.809357 220.616608,353.941742 221.285538,351.514618 
	C226.633377,332.110779 227.290787,312.525848 221.404480,293.339905 
	C207.112061,246.754929 175.161957,220.562622 127.066849,213.344421 
	C127.039261,161.921951 127.006378,110.955589 126.973495,59.989231 
	C127.608215,49.834026 125.205711,39.395660 130.443207,29.302643 
	C168.359650,29.039124 205.638641,29.083096 242.917603,29.127064 
	C242.615967,29.879911 242.462769,30.745214 241.990448,31.368774 
	C234.676804,41.023777 234.814514,46.530853 242.880081,55.769123 
	C243.106247,56.146069 243.129272,56.352749 242.661102,56.255440 
	C230.705902,56.211937 219.218170,56.205811 207.732086,56.341515 
	C200.580872,56.425999 193.380341,56.248703 186.292542,57.020706 
	C168.093628,59.002918 152.515976,75.462357 152.121048,93.766312 
	C151.639877,116.066978 151.642822,138.393600 152.115479,160.694595 
	C152.518860,179.727737 169.160294,197.074677 188.128235,197.807053 
	C207.072205,198.538498 226.068619,197.911819 245.278137,198.004089 
	C245.667389,198.217606 245.820557,198.307571 245.973724,198.397552 
	C245.471115,199.947128 245.136749,201.577286 244.439301,203.033539 
	C238.755508,214.901108 239.703827,221.479477 248.430420,231.649765 
	C240.267410,234.287811 237.221436,238.141769 237.113602,246.223724 
	C237.053848,250.702133 237.092392,255.181961 237.102188,259.661133 
	C237.123718,269.518372 239.859833,273.166534 249.125122,275.717865 
	C242.235199,285.344055 242.148773,290.030975 248.510590,299.874695 
	C240.131058,302.672302 237.201721,306.478210 237.129364,314.951996 
	C237.091156,319.425903 237.107178,323.900513 237.124298,328.374695 
	C237.160507,337.832123 239.833633,341.350708 248.994705,344.043945 
	C242.266876,354.040497 242.229385,358.485687 248.501007,368.401978 
	C240.846512,370.565521 237.301208,374.712799 237.129913,382.062836 
	C237.009583,387.226379 237.062805,392.395294 237.111145,397.561157 
	C237.188690,405.849731 240.015427,409.606201 247.974304,412.141693 
	C246.668427,415.135376 244.810715,418.017395 244.177307,421.147186 
	C243.034851,426.792236 244.813019,431.926453 248.436401,436.662140 
	C240.265930,439.322510 237.219467,443.167175 237.111191,451.233704 
	C237.048889,455.875458 237.082657,460.518768 237.100494,465.161285 
	C237.136597,474.551483 239.912521,478.167786 249.064896,480.795502 
	C244.228409,486.546204 240.663116,492.877411 242.089752,500.673096 
	C242.816086,504.642181 244.579224,508.421539 245.936844,512.643311 
	C239.645599,513.000000 233.291214,513.000000 226.468414,513.000000 
z"/>
<path fill="#3C58A0" opacity="1.000000" stroke="none" 
	d="
M243.329056,29.088772 
	C205.638641,29.083096 168.359650,29.039124 130.624939,28.962482 
	C134.946381,16.595367 143.521362,8.122986 155.931351,3.511961 
	C157.104950,3.075895 158.165726,2.336135 159.139435,1.368686 
	C191.020889,1.000000 223.041794,1.000000 255.531342,1.000000 
	C256.000153,5.977960 256.027435,10.956100 255.994400,15.933840 
	C255.938889,24.300434 252.135071,28.352678 243.329056,29.088772 
z"/>
<path fill="#DDEDFF" opacity="1.000000" stroke="none" 
	d="
M246.433105,198.290573 
	C245.820557,198.307571 245.667389,198.217606 245.221893,197.663895 
	C243.207672,194.604370 241.208359,192.148315 239.816803,189.386108 
	C235.912918,181.637054 238.396378,174.693924 243.453781,168.023697 
	C246.073853,167.841248 248.235931,167.712296 250.398056,167.711838 
	C303.388062,167.700623 356.378052,167.704514 409.368073,167.701981 
	C421.939209,167.701370 424.023712,165.654922 424.024780,153.344604 
	C424.026306,135.514633 424.030029,117.684662 424.023010,99.854691 
	C424.018921,89.489265 421.513519,87.031853 410.953339,87.031281 
	C357.296783,87.028374 303.640228,87.033264 249.983688,87.018204 
	C247.656738,87.017555 245.329834,86.847351 242.814056,86.492966 
	C237.818253,81.709404 234.296234,76.277855 236.203262,69.625969 
	C237.550690,64.925980 240.754303,60.758152 243.129272,56.352749 
	C243.129272,56.352749 243.106247,56.146069 243.046906,56.060692 
	C245.141037,56.092602 247.294464,56.311520 249.447968,56.312298 
	C303.105042,56.331738 356.762115,56.298958 410.419159,56.343739 
	C430.451050,56.360455 445.686249,66.474976 451.210602,83.871262 
	C452.791931,88.851021 453.372986,94.318565 453.447144,99.576065 
	C453.708038,118.069077 453.608398,136.568253 453.534943,155.064651 
	C453.430237,181.415161 436.675171,198.103302 410.362061,198.120590 
	C355.872192,198.156403 301.382355,198.164246 246.433105,198.290573 
z"/>
<path fill="#49AFF5" opacity="1.000000" stroke="none" 
	d="
M478.625671,163.464478 
	C486.660217,178.322479 492.101074,194.420029 495.856415,210.990082 
	C498.583405,223.022644 500.498413,235.300491 501.807190,247.572235 
	C502.720734,256.138275 501.947266,264.879395 502.012665,273.541656 
	C502.252655,305.325409 495.068909,335.532898 482.750214,364.657806 
	C481.741974,367.041534 480.716400,369.417938 479.396973,372.012604 
	C478.774750,370.824463 478.174957,369.421661 478.174072,368.018433 
	C478.131378,300.602142 478.139771,233.185837 478.154358,165.769516 
	C478.154510,165.112335 478.315369,164.455185 478.625671,163.464478 
z"/>
<path fill="#FF4155" opacity="1.000000" stroke="none" 
	d="
M435.729492,435.872314 
	C423.487701,447.094604 411.065063,457.951904 398.588806,468.747162 
	C397.150482,469.991699 395.413330,470.890900 393.466370,471.997009 
	C392.712982,470.165283 391.960144,468.287720 391.955078,466.408081 
	C391.879608,438.443298 391.869781,410.478149 391.922607,382.513245 
	C391.939392,373.619171 396.615967,368.916229 405.387451,368.784271 
	C410.879333,368.701660 416.374481,368.701599 421.866333,368.785736 
	C430.438843,368.917053 435.173218,373.492981 435.243164,382.075287 
	C435.372040,397.887787 435.277710,413.702057 435.300507,429.515564 
	C435.303375,431.506775 435.451752,433.497742 435.729492,435.872314 
M408.069611,409.132904 
	C408.727356,416.907898 409.919678,418.057007 417.378265,418.082916 
	C419.371246,418.089844 421.364441,418.088135 423.357300,418.069153 
	C427.558563,418.029083 429.954346,415.958618 429.984497,411.706512 
	C430.057495,401.409790 430.069794,391.111511 429.967743,380.815216 
	C429.923889,376.390869 427.353424,374.197754 423.009949,374.041809 
	C421.185211,373.976288 419.356140,373.997345 417.529602,374.021759 
	C410.706604,374.112915 408.138763,376.575958 408.084290,383.296875 
	C408.016998,391.600677 408.067474,399.905487 408.069611,409.132904 
z"/>
<path fill="#57AFF6" opacity="1.000000" stroke="none" 
	d="
M249.461365,343.994568 
	C239.833633,341.350708 237.160507,337.832123 237.124298,328.374695 
	C237.107178,323.900513 237.091156,319.425903 237.129364,314.951996 
	C237.201721,306.478210 240.131058,302.672302 248.676392,300.179626 
	C254.834183,300.092438 260.650055,300.079315 266.464050,300.177612 
	C275.631195,300.332581 280.666382,305.305817 280.818268,314.382416 
	C280.904480,319.532806 280.913300,324.687378 280.816132,329.837402 
	C280.647308,338.786713 275.758118,343.724030 266.878754,343.896027 
	C261.230316,344.005463 255.578384,343.934998 249.461365,343.994568 
z"/>
<path fill="#4FA9F5" opacity="1.000000" stroke="none" 
	d="
M249.526886,480.759216 
	C239.912521,478.167786 237.136597,474.551483 237.100494,465.161285 
	C237.082657,460.518768 237.048889,455.875458 237.111191,451.233704 
	C237.219467,443.167175 240.265930,439.322510 248.610397,436.949615 
	C255.120316,436.911407 261.267059,436.900574 267.411591,437.010834 
	C275.438568,437.154816 280.486664,441.963806 280.808044,450.005066 
	C281.026855,455.479340 280.927429,460.970123 280.846039,466.451691 
	C280.715546,475.243896 275.908478,480.243225 266.933624,480.645752 
	C261.295563,480.898621 255.637802,480.712219 249.526886,480.759216 
M254.405197,446.362854 
	C254.274765,450.341614 253.890488,454.332642 254.082016,458.295837 
	C254.292877,462.658722 257.255798,463.987000 261.295776,464.055481 
	C271.827911,464.233978 274.442780,463.414398 274.908264,458.743774 
	C275.282959,454.984344 275.118439,451.149628 274.899139,447.365356 
	C274.831146,446.192627 274.070862,444.753082 273.162231,443.989014 
	C269.174500,440.635559 258.464996,441.663422 254.405197,446.362854 
z"/>
<path fill="#4FAAF6" opacity="1.000000" stroke="none" 
	d="
M249.583008,275.683899 
	C239.859833,273.166534 237.123718,269.518372 237.102188,259.661133 
	C237.092392,255.181961 237.053848,250.702133 237.113602,246.223724 
	C237.221436,238.141769 240.267410,234.287811 248.605499,231.925201 
	C255.110794,231.890182 261.252045,231.884201 267.391235,231.993576 
	C275.430847,232.136810 280.485931,236.913300 280.799744,244.942566 
	C281.026489,250.743591 281.020386,256.567719 280.794434,262.368927 
	C280.496490,270.017120 276.084015,274.823120 268.453186,275.401825 
	C262.344604,275.865051 256.180420,275.594727 249.583008,275.683899 
M273.486115,257.013428 
	C276.695892,251.246857 277.390961,244.763123 273.593750,239.714417 
	C270.275635,235.302673 264.246582,236.853058 259.120087,237.704880 
	C255.459930,238.313065 253.757889,240.603912 254.092010,243.908539 
	C254.593658,248.869797 251.552246,254.744476 257.421997,258.489960 
	C257.558685,258.577179 257.732880,258.673370 257.882416,258.662933 
	C262.886414,258.313354 267.889526,257.951294 273.486115,257.013428 
z"/>
<path fill="#4EA9F5" opacity="1.000000" stroke="none" 
	d="
M347.333313,334.884766 
	C344.936554,341.422028 340.224213,343.869629 333.995087,343.928436 
	C328.669464,343.978760 323.341095,344.030151 318.017426,343.916779 
	C309.834442,343.742523 304.766907,339.174103 304.317627,331.114014 
	C303.975494,324.976379 303.960663,318.784332 304.349121,312.651276 
	C304.829773,305.061432 309.750610,300.478973 317.358582,300.199249 
	C323.176025,299.985352 329.014343,299.976532 334.831207,300.197479 
	C342.900940,300.503998 347.816742,305.496643 347.905243,313.574615 
	C347.981659,320.545959 347.630768,327.521973 347.333313,334.884766 
M331.508850,305.983490 
	C321.908844,306.000153 320.998322,306.860168 320.992767,315.916107 
	C320.986664,325.887878 322.786346,327.945465 331.540131,327.974792 
	C340.689636,328.005493 342.959167,325.861298 342.982788,317.164337 
	C343.009460,307.342621 341.769409,306.029633 331.508850,305.983490 
z"/>
<path fill="#4EA9F5" opacity="1.000000" stroke="none" 
	d="
M304.782104,470.826111 
	C304.565613,463.121552 304.016113,455.792114 304.462189,448.523804 
	C304.893799,441.491516 310.086426,437.179718 317.182831,437.027802 
	C323.168488,436.899658 329.162048,436.883972 335.146759,437.033081 
	C342.572327,437.218048 347.654175,442.201599 347.905182,449.616272 
	C348.102081,455.431763 348.048981,461.260925 347.934204,467.080597 
	C347.777618,475.019684 343.356323,480.022675 335.488922,480.545685 
	C329.363708,480.952881 323.178162,480.846222 317.039642,480.549500 
	C311.011963,480.258148 306.678131,477.278931 304.782104,470.826111 
M337.757416,463.844299 
	C344.877380,461.702820 342.682312,455.746521 342.931335,450.904297 
	C343.150726,446.638306 341.547333,443.653381 336.813812,442.657349 
	C329.957367,441.214630 322.845123,442.189606 321.964294,446.112061 
	C320.913239,450.792725 321.268921,455.933105 321.910797,460.755127 
	C322.084656,462.061279 325.394592,463.527710 327.441284,463.871368 
	C330.512329,464.386963 333.738861,463.976349 337.757416,463.844299 
z"/>
<path fill="#4FAAF6" opacity="1.000000" stroke="none" 
	d="
M343.723328,235.209991 
	C345.322266,238.930634 347.364441,242.311722 347.789612,245.885208 
	C348.433655,251.297974 348.064880,256.847504 347.922485,262.333649 
	C347.727203,269.859772 343.627075,274.685791 336.137207,275.279114 
	C329.532166,275.802338 322.827576,275.799591 316.217133,275.327148 
	C309.053741,274.815155 304.707153,270.124542 304.313324,262.919708 
	C303.986938,256.949005 303.991364,250.933640 304.298828,244.961197 
	C304.732208,236.543747 309.692444,232.078751 318.218689,231.987122 
	C323.707764,231.928131 329.226318,231.650070 334.676605,232.115280 
	C337.657715,232.369720 340.524323,233.965622 343.723328,235.209991 
M342.921387,252.913101 
	C342.936279,250.261505 343.042816,247.606522 342.945343,244.959061 
	C342.782990,240.548157 340.483582,237.839188 336.100372,237.129044 
	C328.824982,235.950317 323.055054,237.741425 321.435944,241.609451 
	C321.186554,242.205307 321.053009,242.893890 321.047516,243.541138 
	C320.929504,257.450409 319.480164,259.643951 334.928192,259.011627 
	C335.093719,259.004852 335.259705,259.003845 335.425385,259.006561 
	C339.171967,259.067719 341.842926,257.616943 342.921387,252.913101 
z"/>
<path fill="#4FAAF6" opacity="1.000000" stroke="none" 
	d="
M248.443024,412.102173 
	C240.015427,409.606201 237.188690,405.849731 237.111145,397.561157 
	C237.062805,392.395294 237.009583,387.226379 237.129913,382.062836 
	C237.301208,374.712799 240.846512,370.565521 248.584534,368.720947 
	C255.105972,368.688019 261.252625,368.721680 267.398071,368.826172 
	C275.319946,368.960876 280.353912,373.437988 280.757294,381.217041 
	C281.075287,387.349548 281.073456,393.525208 280.753052,399.657623 
	C280.347443,407.420807 275.290802,411.959534 267.359802,412.074921 
	C261.211823,412.164398 255.061218,412.073395 248.443024,412.102173 
M267.240021,396.000641 
	C272.036407,396.314484 274.429382,394.228699 275.277130,389.316223 
	C277.347107,377.320923 274.738251,373.875092 262.906311,374.000275 
	C255.729660,374.076233 254.016129,375.749756 253.982040,382.731293 
	C253.972305,384.725006 254.072479,386.723572 253.966415,388.711578 
	C253.705612,393.599976 256.390015,395.652100 260.856262,395.961945 
	C262.675507,396.088165 264.509979,395.994690 267.240021,396.000641 
z"/>
<path fill="#FCC63A" opacity="1.000000" stroke="none" 
	d="
M425.941833,343.372437 
	C418.241119,343.621246 410.920288,344.078552 403.635223,343.748169 
	C396.643829,343.431122 392.111389,338.296814 391.939117,331.263672 
	C391.792572,325.280273 391.814697,319.288818 391.927307,313.304016 
	C392.070526,305.691742 396.580597,300.722534 404.189667,300.302948 
	C410.488678,299.955658 416.839233,299.956757 423.136780,300.322693 
	C430.539642,300.752869 435.012787,305.557770 435.246338,312.943756 
	C435.435455,318.924744 435.348907,324.916992 435.277954,330.902954 
	C435.204742,337.077301 432.306427,341.292114 425.941833,343.372437 
M408.004700,318.307251 
	C409.321594,321.135681 409.983307,325.577789 412.099731,326.437042 
	C415.836884,327.954346 420.613037,328.043457 424.650482,327.227386 
	C426.763031,326.800415 429.648224,323.209595 429.696625,320.993347 
	C429.801239,316.201233 432.764801,309.388611 426.731781,307.052826 
	C422.218018,305.305237 416.094269,305.893890 411.343719,307.448212 
	C409.355835,308.098572 409.066040,313.939117 408.004700,318.307251 
z"/>
<path fill="#4FAAF6" opacity="1.000000" stroke="none" 
	d="
M304.199219,389.039703 
	C304.203796,386.387970 304.122589,384.218658 304.227661,382.058411 
	C304.638489,373.614288 309.456238,368.926697 317.873077,368.830597 
	C323.701508,368.764008 329.533875,368.720367 335.360016,368.856720 
	C342.620331,369.026642 347.604187,373.788544 347.881348,381.055878 
	C348.122375,387.375214 348.140167,393.720734 347.862305,400.037354 
	C347.557251,406.971405 342.531189,411.810822 335.603119,412.032806 
	C329.613312,412.224731 323.611542,412.171295 317.617584,412.072693 
	C309.547363,411.940002 304.660767,407.160522 304.241852,399.018341 
	C304.079468,395.861938 304.204773,392.690765 304.199219,389.039703 
M323.877136,394.869385 
	C327.807373,395.243286 331.735413,395.887085 335.668396,395.918549 
	C339.980072,395.953003 342.607605,392.862762 342.963989,388.087616 
	C343.587555,379.732452 341.797150,374.824066 337.319702,374.244690 
	C333.567566,373.759155 329.650513,373.932220 325.889557,374.434998 
	C324.390839,374.635376 322.162689,376.320190 321.903870,377.648285 
	C320.808655,383.268158 319.380859,389.090424 323.877136,394.869385 
z"/>
<path fill="#88CD65" opacity="1.000000" stroke="none" 
	d="
M392.145721,241.762421 
	C394.444031,234.809906 399.072235,231.842331 405.898895,231.953918 
	C411.228546,232.041031 416.562042,231.898956 421.891510,231.990555 
	C430.172821,232.132874 435.017670,236.801392 435.204926,244.929779 
	C435.343048,250.923767 435.355438,256.927521 435.183228,262.920044 
	C434.966339,270.466705 430.452545,275.045929 422.971710,275.259735 
	C416.646454,275.440521 410.306824,275.449219 403.982635,275.248322 
	C396.914551,275.023773 392.152496,270.250916 391.984222,263.164581 
	C391.818268,256.174255 392.024902,249.175110 392.145721,241.762421 
M425.346344,237.720520 
	C422.393127,237.494751 419.436279,237.044418 416.487457,237.091797 
	C410.999481,237.179962 408.320984,239.942337 408.037628,245.370132 
	C407.392944,257.720245 408.680878,259.065399 421.112457,259.014008 
	C422.272766,259.009216 423.559601,259.295288 424.564362,258.891113 
	C426.172119,258.244415 428.039398,257.463226 429.008179,256.154816 
	C431.833832,252.338837 429.845825,241.131485 425.346344,237.720520 
z"/>
<path fill="#6188CB" opacity="1.000000" stroke="none" 
	d="
M389.702576,22.074175 
	C397.274475,22.016327 404.416687,21.921301 411.556213,22.019600 
	C416.605408,22.089117 419.873535,25.055496 419.955048,29.310648 
	C420.039185,33.702782 416.618256,36.853580 411.330444,36.949131 
	C404.855560,37.066128 398.376953,36.962517 391.900085,36.985527 
	C387.352722,37.001686 383.958313,35.143944 383.229675,30.493546 
	C382.534943,26.059698 385.015808,23.298536 389.702576,22.074175 
z"/>
<path fill="#4AB1F7" opacity="1.000000" stroke="none" 
	d="
M126.636368,60.093651 
	C127.006378,110.955589 127.039261,161.921951 126.621048,213.392334 
	C123.849785,213.782944 121.530434,213.592819 119.209328,213.568176 
	C99.950859,213.363739 81.698143,217.227646 64.593086,227.096298 
	C56.798317,232.633469 48.867809,237.616058 42.002769,243.784454 
	C27.986828,256.378082 19.118940,272.461853 12.949351,290.112244 
	C12.632847,288.764862 12.049710,287.419128 12.041580,286.069885 
	C11.969723,274.144867 11.376209,262.176880 12.183017,250.306259 
	C12.925413,239.383377 15.206537,228.565048 17.386227,217.337402 
	C24.648237,215.033493 31.436016,213.385559 37.999249,211.094391 
	C54.210049,205.435349 68.204071,196.316437 78.339325,182.296890 
	C92.871170,162.195770 94.453926,139.583435 89.434433,116.149696 
	C87.891533,108.946587 85.105972,102.009666 82.889435,94.950851 
	C95.710991,81.307602 110.459892,70.071800 126.636368,60.093651 
z"/>
<path fill="#FFDC40" opacity="1.000000" stroke="none" 
	d="
M111.026405,465.224701 
	C97.370514,455.535858 84.728432,444.713104 74.183517,431.635284 
	C66.749352,422.415375 59.318981,413.176514 52.314556,403.632233 
	C48.427231,398.335388 45.417717,392.394287 42.203568,386.079956 
	C42.564342,384.781281 42.823490,384.155548 42.890968,383.509766 
	C45.548885,358.072174 58.256237,339.120728 80.264473,325.984802 
	C80.735245,325.982758 80.923462,325.976166 81.279060,326.271851 
	C80.272705,338.484192 83.346031,348.104919 95.546623,352.854370 
	C96.113380,353.075012 96.528580,353.684998 96.947083,354.447449 
	C96.231918,355.736786 95.602318,356.705322 94.933395,357.645905 
	C85.614418,370.748840 89.986237,389.195038 104.380135,395.190399 
	C109.445190,397.300079 114.508018,399.446960 119.690628,401.232056 
	C123.557213,402.563904 125.665802,404.698822 124.933594,408.943268 
	C124.180222,413.310394 121.524246,416.148407 117.155785,415.837952 
	C112.816216,415.529541 108.403419,414.496887 104.302650,413.009888 
	C98.687202,410.973663 94.066200,411.924988 91.266968,416.583344 
	C88.768311,420.741516 90.065521,426.064117 95.110168,428.912903 
	C99.079437,431.154358 103.640594,432.347717 107.928040,434.439056 
	C107.910362,435.700562 107.870163,436.530914 107.901955,437.358521 
	C108.116798,442.952301 112.045677,447.022247 117.124870,446.930847 
	C122.025429,446.842651 125.788017,442.880859 126.049423,437.479828 
	C126.121498,435.990692 126.066093,434.495392 126.378296,432.857300 
	C134.547928,429.535217 139.377121,423.430573 142.884918,416.421570 
	C143.790710,432.014648 153.476669,441.410675 169.972412,443.326355 
	C169.963593,443.749146 169.957397,443.918213 169.620453,444.147980 
	C163.346466,448.389343 157.676270,453.045288 151.402176,456.650146 
	C138.955292,463.801758 125.164764,465.551666 111.026405,465.224701 
z"/>
<path fill="#FFB332" opacity="1.000000" stroke="none" 
	d="
M12.976412,290.561340 
	C19.118940,272.461853 27.986828,256.378082 42.002769,243.784454 
	C48.867809,237.616058 56.798317,232.633469 64.608337,227.516663 
	C65.019127,229.415268 64.896469,230.940994 65.148170,232.402206 
	C66.046043,237.614853 71.358002,240.651337 75.783562,238.409958 
	C93.936638,229.216187 113.166542,226.804276 132.996490,230.162247 
	C156.420364,234.128784 175.443222,245.956970 190.267487,264.474670 
	C201.601013,278.631927 207.745224,295.005981 209.775696,312.864075 
	C210.501114,319.244141 209.891953,325.776001 209.891953,333.159912 
	C202.762665,324.709442 196.579163,317.380005 190.299133,309.635834 
	C188.150665,295.674225 182.504242,283.688416 173.518631,273.497589 
	C157.344742,255.154404 136.991302,246.469925 112.353470,247.669617 
	C101.273056,248.209152 91.234589,251.851608 80.913025,255.931244 
	C73.776512,253.507935 71.349449,248.298218 71.861679,241.392227 
	C44.018810,250.141052 14.395601,308.062469 25.240438,331.503784 
	C31.399347,324.332367 37.528564,317.195557 43.982292,309.915131 
	C50.785728,305.143890 57.264648,300.516235 63.743568,295.888611 
	C64.193733,296.145050 64.643898,296.401520 65.094070,296.657959 
	C63.820946,302.546265 67.232994,305.894775 70.807465,309.292236 
	C59.132778,316.766266 48.644474,325.155396 41.144039,336.564911 
	C36.617645,343.450348 32.989296,350.926117 28.957424,358.136658 
	C26.315443,351.092377 23.003105,344.216675 21.179554,336.966553 
	C17.984142,324.262207 15.628227,311.342621 13.103002,298.477417 
	C12.631340,296.074493 13.014697,293.503723 12.976412,290.561340 
z"/>
<path fill="#72C3F9" opacity="1.000000" stroke="none" 
	d="
M82.586319,95.087318 
	C85.105972,102.009666 87.891533,108.946587 89.434433,116.149696 
	C94.453926,139.583435 92.871170,162.195770 78.339325,182.296890 
	C68.204071,196.316437 54.210049,205.435349 37.999249,211.094391 
	C31.436016,213.385559 24.648237,215.033493 17.565760,216.971115 
	C19.628906,207.631393 21.688545,198.166718 24.624342,188.982071 
	C33.289394,161.873459 47.265209,137.520828 64.539589,115.063812 
	C69.934288,108.050598 76.340187,101.815224 82.586319,95.087318 
z"/>
<path fill="#FF9201" opacity="1.000000" stroke="none" 
	d="
M28.970699,358.513489 
	C32.989296,350.926117 36.617645,343.450348 41.144039,336.564911 
	C48.644474,325.155396 59.132778,316.766266 71.028381,309.305237 
	C71.465790,309.063873 71.906937,309.106323 71.934059,309.532776 
	C71.688820,315.699554 72.542923,320.843262 78.607040,323.549530 
	C79.290749,323.854675 79.534271,325.146179 79.981918,325.980286 
	C58.256237,339.120728 45.548885,358.072174 42.890968,383.509766 
	C42.823490,384.155548 42.564342,384.781281 42.130112,385.717682 
	C37.571747,376.976105 33.277859,367.933197 28.970699,358.513489 
z"/>
<path fill="#FF9202" opacity="1.000000" stroke="none" 
	d="
M111.155884,465.525970 
	C125.164764,465.551666 138.955292,463.801758 151.402176,456.650146 
	C157.676270,453.045288 163.346466,448.389343 169.640091,444.536438 
	C170.568680,450.247711 172.284698,454.735107 178.240601,456.358551 
	C179.252609,456.634430 179.957062,458.038483 180.531708,459.106995 
	C167.652466,470.346680 153.285828,478.028107 136.929550,481.895325 
	C128.381485,476.539307 119.833427,471.183289 111.155884,465.525970 
z"/>
<path fill="#FBB033" opacity="1.000000" stroke="none" 
	d="
M137.107361,482.211182 
	C153.285828,478.028107 167.652466,470.346680 180.794144,459.133148 
	C181.502655,458.985840 181.676849,458.997986 181.882553,459.407379 
	C181.666367,466.397522 186.837631,467.538239 191.429382,469.262024 
	C181.565063,479.012268 169.940994,486.039520 156.961609,491.636414 
	C150.230331,488.777649 143.757767,485.652313 137.107361,482.211182 
z"/>
<path fill="#FEDC40" opacity="1.000000" stroke="none" 
	d="
M191.702240,469.084290 
	C186.837631,467.538239 181.666367,466.397522 181.975800,459.067841 
	C184.397964,455.352264 186.735611,452.355133 189.122452,449.397644 
	C207.735733,426.334290 213.866180,400.155670 207.978424,371.286438 
	C203.904831,351.312592 193.860672,334.661804 178.613525,320.993103 
	C161.227081,305.406525 140.685104,297.734650 117.733177,297.394897 
	C101.660370,297.157013 86.075943,300.875183 71.906937,309.106323 
	C71.906937,309.106323 71.465790,309.063873 71.244873,309.050903 
	C67.232994,305.894775 63.820946,302.546265 65.094070,296.657959 
	C64.643898,296.401520 64.193733,296.145050 63.743568,295.888611 
	C57.264648,300.516235 50.785728,305.143890 44.049004,309.484222 
	C47.783298,285.789215 60.203880,268.385010 81.151131,257.283295 
	C81.892952,262.660522 81.805870,267.910248 83.244698,272.701721 
	C85.433922,279.992065 93.267776,284.823334 99.674240,283.746643 
	C126.019516,279.318970 150.516525,284.498077 173.271225,298.145172 
	C179.219788,301.712799 184.700226,306.060913 190.395660,310.050598 
	C196.579163,317.380005 202.762665,324.709442 209.891953,333.159912 
	C209.891953,325.776001 210.501114,319.244141 209.775696,312.864075 
	C207.745224,295.005981 201.601013,278.631927 190.267487,264.474670 
	C175.443222,245.956970 156.420364,234.128784 132.996490,230.162247 
	C113.166542,226.804276 93.936638,229.216187 75.783562,238.409958 
	C71.358002,240.651337 66.046043,237.614853 65.148170,232.402206 
	C64.896469,230.940994 65.019127,229.415268 64.954819,227.498779 
	C81.698143,217.227646 99.950859,213.363739 119.209328,213.568176 
	C121.530434,213.592819 123.849785,213.782944 126.615753,213.848450 
	C175.161957,220.562622 207.112061,246.754929 221.404480,293.339905 
	C227.290787,312.525848 226.633377,332.110779 221.285538,351.514618 
	C220.616608,353.941742 220.246933,356.809357 220.864243,359.179749 
	C231.809540,401.209320 222.503815,437.832977 191.702240,469.084290 
z"/>
<path fill="#BCC8F4" opacity="1.000000" stroke="none" 
	d="
M242.661102,56.255440 
	C240.754303,60.758152 237.550690,64.925980 236.203262,69.625969 
	C234.296234,76.277855 237.818253,81.709404 242.809998,86.598907 
	C242.994766,86.968010 243.008575,87.179619 242.542511,87.122871 
	C225.614349,87.055786 209.152222,87.018768 192.690201,87.046310 
	C184.398315,87.060188 181.241074,90.212677 181.222336,98.552345 
	C181.179352,117.675034 181.175262,136.797989 181.223953,155.920639 
	C181.245331,164.322266 184.270294,167.562927 192.606918,167.621063 
	C209.398590,167.738159 226.191940,167.613098 242.983551,167.725281 
	C242.982513,167.862640 242.995819,168.137054 242.995819,168.137054 
	C238.396378,174.693924 235.912918,181.637054 239.816803,189.386108 
	C241.208359,192.148315 243.207672,194.604370 244.985809,197.540359 
	C226.068619,197.911819 207.072205,198.538498 188.128235,197.807053 
	C169.160294,197.074677 152.518860,179.727737 152.115479,160.694595 
	C151.642822,138.393600 151.639877,116.066978 152.121048,93.766312 
	C152.515976,75.462357 168.093628,59.002918 186.292542,57.020706 
	C193.380341,56.248703 200.580872,56.425999 207.732086,56.341515 
	C219.218170,56.205811 230.705902,56.211937 242.661102,56.255440 
z"/>
<path fill="#50ABF7" opacity="1.000000" stroke="none" 
	d="
M242.998840,86.862068 
	C245.329834,86.847351 247.656738,87.017555 249.983688,87.018204 
	C303.640228,87.033264 357.296783,87.028374 410.953339,87.031281 
	C421.513519,87.031853 424.018921,89.489265 424.023010,99.854691 
	C424.030029,117.684662 424.026306,135.514633 424.024780,153.344604 
	C424.023712,165.654922 421.939209,167.701370 409.368073,167.701981 
	C356.378052,167.704514 303.388062,167.700623 250.398056,167.711838 
	C248.235931,167.712296 246.073853,167.841248 243.453781,168.023697 
	C242.995819,168.137054 242.982513,167.862640 242.904816,167.408234 
	C241.972839,165.544296 241.170319,164.100220 240.256531,162.730377 
	C227.146957,143.077942 224.564331,122.501762 235.064423,100.918663 
	C237.372818,96.173737 240.343094,91.750824 243.008575,87.179619 
	C243.008575,87.179619 242.994766,86.968010 242.998840,86.862068 
z"/>
<path fill="#FF7085" opacity="1.000000" stroke="none" 
	d="
M408.068359,408.671387 
	C408.067474,399.905487 408.016998,391.600677 408.084290,383.296875 
	C408.138763,376.575958 410.706604,374.112915 417.529602,374.021759 
	C419.356140,373.997345 421.185211,373.976288 423.009949,374.041809 
	C427.353424,374.197754 429.923889,376.390869 429.967743,380.815216 
	C430.069794,391.111511 430.057495,401.409790 429.984497,411.706512 
	C429.954346,415.958618 427.558563,418.029083 423.357300,418.069153 
	C421.364441,418.088135 419.371246,418.089844 417.378265,418.082916 
	C409.919678,418.057007 408.727356,416.907898 408.068359,408.671387 
z"/>
<path fill="#72C3F9" opacity="1.000000" stroke="none" 
	d="
M254.577759,445.975311 
	C258.464996,441.663422 269.174500,440.635559 273.162231,443.989014 
	C274.070862,444.753082 274.831146,446.192627 274.899139,447.365356 
	C275.118439,451.149628 275.282959,454.984344 274.908264,458.743774 
	C274.442780,463.414398 271.827911,464.233978 261.295776,464.055481 
	C257.255798,463.987000 254.292877,462.658722 254.082016,458.295837 
	C253.890488,454.332642 254.274765,450.341614 254.577759,445.975311 
z"/>
<path fill="#72C2F9" opacity="1.000000" stroke="none" 
	d="
M273.189453,257.302246 
	C267.889526,257.951294 262.886414,258.313354 257.882416,258.662933 
	C257.732880,258.673370 257.558685,258.577179 257.421997,258.489960 
	C251.552246,254.744476 254.593658,248.869797 254.092010,243.908539 
	C253.757889,240.603912 255.459930,238.313065 259.120087,237.704880 
	C264.246582,236.853058 270.275635,235.302673 273.593750,239.714417 
	C277.390961,244.763123 276.695892,251.246857 273.189453,257.302246 
z"/>
<path fill="#72C2F9" opacity="1.000000" stroke="none" 
	d="
M331.965912,305.983459 
	C341.769409,306.029633 343.009460,307.342621 342.982788,317.164337 
	C342.959167,325.861298 340.689636,328.005493 331.540131,327.974792 
	C322.786346,327.945465 320.986664,325.887878 320.992767,315.916107 
	C320.998322,306.860168 321.908844,306.000153 331.965912,305.983459 
z"/>
<path fill="#72C2F9" opacity="1.000000" stroke="none" 
	d="
M337.328369,463.901947 
	C333.738861,463.976349 330.512329,464.386963 327.441284,463.871368 
	C325.394592,463.527710 322.084656,462.061279 321.910797,460.755127 
	C321.268921,455.933105 320.913239,450.792725 321.964294,446.112061 
	C322.845123,442.189606 329.957367,441.214630 336.813812,442.657349 
	C341.547333,443.653381 343.150726,446.638306 342.931335,450.904297 
	C342.682312,455.746521 344.877380,461.702820 337.328369,463.901947 
z"/>
<path fill="#72C2F9" opacity="1.000000" stroke="none" 
	d="
M342.862305,253.336639 
	C341.842926,257.616943 339.171967,259.067719 335.425385,259.006561 
	C335.259705,259.003845 335.093719,259.004852 334.928192,259.011627 
	C319.480164,259.643951 320.929504,257.450409 321.047516,243.541138 
	C321.053009,242.893890 321.186554,242.205307 321.435944,241.609451 
	C323.055054,237.741425 328.824982,235.950317 336.100372,237.129044 
	C340.483582,237.839188 342.782990,240.548157 342.945343,244.959061 
	C343.042816,247.606522 342.936279,250.261505 342.862305,253.336639 
z"/>
<path fill="#72C3F9" opacity="1.000000" stroke="none" 
	d="
M266.788757,396.000916 
	C264.509979,395.994690 262.675507,396.088165 260.856262,395.961945 
	C256.390015,395.652100 253.705612,393.599976 253.966415,388.711578 
	C254.072479,386.723572 253.972305,384.725006 253.982040,382.731293 
	C254.016129,375.749756 255.729660,374.076233 262.906311,374.000275 
	C274.738251,373.875092 277.347107,377.320923 275.277130,389.316223 
	C274.429382,394.228699 272.036407,396.314484 266.788757,396.000916 
z"/>
<path fill="#FFDC40" opacity="1.000000" stroke="none" 
	d="
M408.004456,317.863586 
	C409.066040,313.939117 409.355835,308.098572 411.343719,307.448212 
	C416.094269,305.893890 422.218018,305.305237 426.731781,307.052826 
	C432.764801,309.388611 429.801239,316.201233 429.696625,320.993347 
	C429.648224,323.209595 426.763031,326.800415 424.650482,327.227386 
	C420.613037,328.043457 415.836884,327.954346 412.099731,326.437042 
	C409.983307,325.577789 409.321594,321.135681 408.004456,317.863586 
z"/>
<path fill="#72C3F9" opacity="1.000000" stroke="none" 
	d="
M323.535950,394.631775 
	C319.380859,389.090424 320.808655,383.268158 321.903870,377.648285 
	C322.162689,376.320190 324.390839,374.635376 325.889557,374.434998 
	C329.650513,373.932220 333.567566,373.759155 337.319702,374.244690 
	C341.797150,374.824066 343.587555,379.732452 342.963989,388.087616 
	C342.607605,392.862762 339.980072,395.953003 335.668396,395.918549 
	C331.735413,395.887085 327.807373,395.243286 323.535950,394.631775 
z"/>
<path fill="#B3D667" opacity="1.000000" stroke="none" 
	d="
M425.718811,237.896088 
	C429.845825,241.131485 431.833832,252.338837 429.008179,256.154816 
	C428.039398,257.463226 426.172119,258.244415 424.564362,258.891113 
	C423.559601,259.295288 422.272766,259.009216 421.112457,259.014008 
	C408.680878,259.065399 407.392944,257.720245 408.037628,245.370132 
	C408.320984,239.942337 410.999481,237.179962 416.487457,237.091797 
	C419.436279,237.044418 422.393127,237.494751 425.718811,237.896088 
z"/>
<path fill="#FCECA8" opacity="1.000000" stroke="none" 
	d="
M97.014359,354.113647 
	C96.528580,353.684998 96.113380,353.075012 95.546623,352.854370 
	C83.346031,348.104919 80.272705,338.484192 81.472275,325.997284 
	C97.581375,316.449371 114.623985,313.970337 132.603271,317.893097 
	C172.083405,326.506958 197.218582,364.058197 190.183548,403.701996 
	C187.478485,418.945435 180.506958,431.897583 169.975037,443.072632 
	C153.476669,441.410675 143.790710,432.014648 142.944229,416.003479 
	C145.651764,398.768280 140.303772,389.431488 124.638237,383.251617 
	C120.922729,381.785889 117.178909,380.391632 113.443138,378.977631 
	C110.025566,377.684052 107.766006,375.020172 109.166924,371.694946 
	C110.286835,369.036682 112.885445,366.123505 115.501694,365.167206 
	C120.106339,363.484070 124.840881,364.606659 129.288605,367.299805 
	C134.428070,370.411804 139.615494,369.029633 142.330261,364.502777 
	C145.211502,359.698364 143.905121,354.491943 138.417801,351.360596 
	C134.556641,349.157288 130.243607,347.745850 126.139465,345.566101 
	C125.803986,338.685394 123.115555,335.158081 118.009850,334.475586 
	C113.898270,333.925964 109.430237,336.556274 108.317337,340.583252 
	C107.758644,342.604858 107.959206,344.836304 107.553825,347.174438 
	C103.865616,349.621887 100.439987,351.867767 97.014359,354.113647 
z"/>
<path fill="#FFB433" opacity="1.000000" stroke="none" 
	d="
M169.972412,443.326355 
	C180.506958,431.897583 187.478485,418.945435 190.183548,403.701996 
	C197.218582,364.058197 172.083405,326.506958 132.603271,317.893097 
	C114.623985,313.970337 97.581375,316.449371 81.304893,325.695007 
	C80.923462,325.976166 80.735245,325.982758 80.264465,325.984802 
	C79.534271,325.146179 79.290749,323.854675 78.607040,323.549530 
	C72.542923,320.843262 71.688820,315.699554 71.934059,309.532776 
	C86.075943,300.875183 101.660370,297.157013 117.733177,297.394897 
	C140.685104,297.734650 161.227081,305.406525 178.613525,320.993103 
	C193.860672,334.661804 203.904831,351.312592 207.978424,371.286438 
	C213.866180,400.155670 207.735733,426.334290 189.122452,449.397644 
	C186.735611,452.355133 184.397964,455.352264 181.944275,458.670593 
	C181.676849,458.997986 181.502655,458.985840 181.066040,458.947510 
	C179.957062,458.038483 179.252609,456.634430 178.240601,456.358551 
	C172.284698,454.735107 170.568680,450.247711 169.970825,444.475739 
	C169.957397,443.918213 169.963593,443.749146 169.972412,443.326355 
z"/>
<path fill="#FFB433" opacity="1.000000" stroke="none" 
	d="
M126.132355,345.980835 
	C130.243607,347.745850 134.556641,349.157288 138.417801,351.360596 
	C143.905121,354.491943 145.211502,359.698364 142.330261,364.502777 
	C139.615494,369.029633 134.428070,370.411804 129.288605,367.299805 
	C124.840881,364.606659 120.106339,363.484070 115.501694,365.167206 
	C112.885445,366.123505 110.286835,369.036682 109.166924,371.694946 
	C107.766006,375.020172 110.025566,377.684052 113.443138,378.977631 
	C117.178909,380.391632 120.922729,381.785889 124.638237,383.251617 
	C140.303772,389.431488 145.651764,398.768280 142.891220,415.580200 
	C139.377121,423.430573 134.547928,429.535217 125.983406,432.922974 
	C119.499222,433.425079 113.719025,433.715851 107.938828,434.006653 
	C103.640594,432.347717 99.079437,431.154358 95.110168,428.912903 
	C90.065521,426.064117 88.768311,420.741516 91.266968,416.583344 
	C94.066200,411.924988 98.687202,410.973663 104.302650,413.009888 
	C108.403419,414.496887 112.816216,415.529541 117.155785,415.837952 
	C121.524246,416.148407 124.180222,413.310394 124.933594,408.943268 
	C125.665802,404.698822 123.557213,402.563904 119.690628,401.232056 
	C114.508018,399.446960 109.445190,397.300079 104.380135,395.190399 
	C89.986237,389.195038 85.614418,370.748840 94.933395,357.645905 
	C95.602318,356.705322 96.231918,355.736786 96.947083,354.447449 
	C100.439987,351.867767 103.865616,349.621887 107.993729,347.186066 
	C114.508247,346.657684 120.320297,346.319275 126.132355,345.980835 
z"/>
<path fill="#FF9302" opacity="1.000000" stroke="none" 
	d="
M107.928040,434.439056 
	C113.719025,433.715851 119.499222,433.425079 125.674301,433.068604 
	C126.066093,434.495392 126.121498,435.990692 126.049423,437.479828 
	C125.788017,442.880859 122.025429,446.842651 117.124870,446.930847 
	C112.045677,447.022247 108.116798,442.952301 107.901955,437.358521 
	C107.870163,436.530914 107.910362,435.700562 107.928040,434.439056 
z"/>
<path fill="#FCECA8" opacity="1.000000" stroke="none" 
	d="
M190.299133,309.635834 
	C184.700226,306.060913 179.219788,301.712799 173.271225,298.145172 
	C150.516525,284.498077 126.019516,279.318970 99.674240,283.746643 
	C93.267776,284.823334 85.433922,279.992065 83.244698,272.701721 
	C81.805870,267.910248 81.892952,262.660522 81.220581,257.064819 
	C81.144455,256.513611 81.252335,256.066956 81.252335,256.066956 
	C91.234589,251.851608 101.273056,248.209152 112.353470,247.669617 
	C136.991302,246.469925 157.344742,255.154404 173.518631,273.497589 
	C182.504242,283.688416 188.150665,295.674225 190.299133,309.635834 
z"/>
<path fill="#FF9201" opacity="1.000000" stroke="none" 
	d="
M80.913025,255.931244 
	C81.252335,256.066956 81.144455,256.513611 81.075005,256.732086 
	C60.203880,268.385010 47.783298,285.789215 43.724495,309.627808 
	C37.528564,317.195557 31.399347,324.332367 25.240438,331.503784 
	C14.395601,308.062469 44.018810,250.141052 71.861679,241.392227 
	C71.349449,248.298218 73.776512,253.507935 80.913025,255.931244 
z"/>
<path fill="#228EE8" opacity="1.000000" stroke="none" 
	d="
M242.542511,87.122871 
	C240.343094,91.750824 237.372818,96.173737 235.064423,100.918663 
	C224.564331,122.501762 227.146957,143.077942 240.256531,162.730377 
	C241.170319,164.100220 241.972839,165.544296 242.905853,167.270889 
	C226.191940,167.613098 209.398590,167.738159 192.606918,167.621063 
	C184.270294,167.562927 181.245331,164.322266 181.223953,155.920639 
	C181.175262,136.797989 181.179352,117.675034 181.222336,98.552345 
	C181.241074,90.212677 184.398315,87.060188 192.690201,87.046310 
	C209.152222,87.018768 225.614349,87.055786 242.542511,87.122871 
z"/>
<path fill="#FF9303" opacity="1.000000" stroke="none" 
	d="
M126.139458,345.566101 
	C120.320297,346.319275 114.508247,346.657684 108.256302,346.984497 
	C107.959206,344.836304 107.758644,342.604858 108.317337,340.583252 
	C109.430237,336.556274 113.898270,333.925964 118.009850,334.475586 
	C123.115555,335.158081 125.803986,338.685394 126.139458,345.566101 
z"/>
</svg>